<?xml version="1.0" encoding="UTF-8" standalone="no"?>
<!DOCTYPE svg PUBLIC "-//W3C//DTD SVG 1.1//EN"
 "http://www.w3.org/Graphics/SVG/1.1/DTD/svg11.dtd">
<!-- Generated by graphviz version 2.40.1 (20161225.0304)
 -->
<!-- Title: %0 Pages: 1 -->
<svg width="617pt" height="716pt"
 viewBox="0.00 0.00 617.28 716.00" xmlns="http://www.w3.org/2000/svg" xmlns:xlink="http://www.w3.org/1999/xlink">
<g id="graph0" class="graph" transform="scale(1 1) rotate(0) translate(144 572)">
<title>%0</title>
<polygon fill="#ffffff" stroke="transparent" points="-144,144 -144,-572 473.2806,-572 473.2806,144 -144,144"/>
<!-- barcodes -->
<g id="node1" class="node">
<title>barcodes</title>
<polygon fill="#4477c9" stroke="transparent" points="0,-290 0,-428 88,-428 88,-290 0,-290"/>
<polygon fill="#add8e6" stroke="transparent" points="0,-410 0,-428 88,-428 88,-410 0,-410"/>
<polygon fill="none" stroke="#000000" points="0,-410 0,-428 88,-428 88,-410 0,-410"/>
<text text-anchor="start" x="25.7593" y="-416.9" font-family="Times,serif" font-weight="bold" font-style="italic" font-size="9.00" fill="#000000"> barcodes </text>
<polygon fill="none" stroke="#000000" points="0,-390 0,-410 88,-410 88,-390 0,-390"/>
<text text-anchor="start" x="5" y="-396.9" font-family="Times,serif" font-size="9.00" fill="#000000">code: String</text>
<polygon fill="none" stroke="#000000" points="0,-370 0,-390 88,-390 88,-370 0,-370"/>
<text text-anchor="start" x="4.8819" y="-376.9" font-family="Times,serif" font-size="9.00" fill="#000000">product_name: String</text>
<polygon fill="none" stroke="#000000" points="0,-350 0,-370 88,-370 88,-350 0,-350"/>
<text text-anchor="start" x="5" y="-356.9" font-family="Times,serif" font-size="9.00" fill="#000000">brand: String</text>
<polygon fill="none" stroke="#000000" points="0,-330 0,-350 88,-350 88,-330 0,-330"/>
<text text-anchor="start" x="5" y="-336.9" font-family="Times,serif" font-size="9.00" fill="#000000">weight: String</text>
<polygon fill="none" stroke="#000000" points="0,-310 0,-330 88,-330 88,-310 0,-310"/>
<text text-anchor="start" x="5" y="-316.9" font-family="Times,serif" font-size="9.00" fill="#000000">_id: ObjectID</text>
<polygon fill="none" stroke="#000000" points="0,-290 0,-310 88,-310 88,-290 0,-290"/>
<text text-anchor="start" x="5" y="-296.9" font-family="Times,serif" font-size="9.00" fill="#000000">__v: Number</text>
</g>
<!-- fridges -->
<g id="node2" class="node">
<title>fridges</title>
<polygon fill="#4477c9" stroke="transparent" points="253.2806,-230 253.2806,-408 329.2806,-408 329.2806,-230 253.2806,-230"/>
<polygon fill="#add8e6" stroke="transparent" points="253.2806,-390 253.2806,-408 329.2806,-408 329.2806,-390 253.2806,-390"/>
<polygon fill="none" stroke="#000000" points="253.2806,-390 253.2806,-408 329.2806,-408 329.2806,-390 253.2806,-390"/>
<text text-anchor="start" x="276.5363" y="-396.9" font-family="Times,serif" font-weight="bold" font-style="italic" font-size="9.00" fill="#000000"> fridges </text>
<polygon fill="none" stroke="#000000" points="253.2806,-370 253.2806,-390 329.2806,-390 329.2806,-370 253.2806,-370"/>
<text text-anchor="start" x="257.9095" y="-376.9" font-family="Times,serif" font-size="9.00" fill="#000000">item_name: String</text>
<polygon fill="none" stroke="#000000" points="253.2806,-350 253.2806,-370 329.2806,-370 329.2806,-350 253.2806,-350"/>
<text text-anchor="start" x="258.2806" y="-356.9" font-family="Times,serif" font-size="9.00" fill="#000000">quantity: Number</text>
<polygon fill="none" stroke="#000000" points="253.2806,-330 253.2806,-350 329.2806,-350 329.2806,-330 253.2806,-330"/>
<text text-anchor="start" x="258.2806" y="-336.9" font-family="Times,serif" font-size="9.00" fill="#000000">expiration: Date</text>
<polygon fill="none" stroke="#000000" points="253.2806,-310 253.2806,-330 329.2806,-330 329.2806,-310 253.2806,-310"/>
<text text-anchor="start" x="257.923" y="-316.9" font-family="Times,serif" font-size="9.00" fill="#000000">barcode: ObjectID</text>
<polygon fill="none" stroke="#000000" points="253.2806,-290 253.2806,-310 329.2806,-310 329.2806,-290 253.2806,-290"/>
<text text-anchor="start" x="258.2806" y="-296.9" font-family="Times,serif" font-size="9.00" fill="#000000">addedOn: Date</text>
<polygon fill="none" stroke="#000000" points="253.2806,-270 253.2806,-290 329.2806,-290 329.2806,-270 253.2806,-270"/>
<text text-anchor="start" x="258.2806" y="-276.9" font-family="Times,serif" font-size="9.00" fill="#000000">user: ObjectID</text>
<polygon fill="none" stroke="#000000" points="253.2806,-250 253.2806,-270 329.2806,-270 329.2806,-250 253.2806,-250"/>
<text text-anchor="start" x="258.2806" y="-256.9" font-family="Times,serif" font-size="9.00" fill="#000000">_id: ObjectID</text>
<polygon fill="none" stroke="#000000" points="253.2806,-230 253.2806,-250 329.2806,-250 329.2806,-230 253.2806,-230"/>
<text text-anchor="start" x="258.2806" y="-236.9" font-family="Times,serif" font-size="9.00" fill="#000000">__v: Number</text>
</g>
<!-- barcodes&#45;&gt;fridges -->
<g id="edge1" class="edge">
<title>barcodes:4&#45;&gt;fridges:3</title>
<path fill="none" stroke="#000000" stroke-dasharray="5,2" d="M88,-320C161.458,-320 179.8226,-320 253.2806,-320"/>
<text text-anchor="middle" x="170.6403" y="-324.2" font-family="Times,serif" font-size="14.00" fill="#000000">barcodes&#45;fridges</text>
<text text-anchor="middle" x="248.2273" y="-307.4" font-family="Times,serif" font-size="14.00" fill="#000000">N</text>
<text text-anchor="middle" x="91.5" y="-307.4" font-family="Times,serif" font-size="14.00" fill="#000000">1</text>
</g>
<!-- recipes -->
<g id="node3" class="node">
<title>recipes</title>
<polygon fill="#4477c9" stroke="transparent" points="253.2806,0 253.2806,-158 329.2806,-158 329.2806,0 253.2806,0"/>
<polygon fill="#add8e6" stroke="transparent" points="253.2806,-140 253.2806,-158 329.2806,-158 329.2806,-140 253.2806,-140"/>
<polygon fill="none" stroke="#000000" points="253.2806,-140 253.2806,-158 329.2806,-158 329.2806,-140 253.2806,-140"/>
<text text-anchor="start" x="276.2893" y="-146.9" font-family="Times,serif" font-weight="bold" font-style="italic" font-size="9.00" fill="#000000"> recipes </text>
<polygon fill="none" stroke="#000000" points="253.2806,-120 253.2806,-140 329.2806,-140 329.2806,-120 253.2806,-120"/>
<text text-anchor="start" x="258.2806" y="-126.9" font-family="Times,serif" font-size="9.00" fill="#000000">title: String</text>
<polygon fill="none" stroke="#000000" points="253.2806,-100 253.2806,-120 329.2806,-120 329.2806,-100 253.2806,-100"/>
<text text-anchor="start" x="257.9095" y="-106.9" font-family="Times,serif" font-size="9.00" fill="#000000">description: String</text>
<polygon fill="none" stroke="#000000" points="253.2806,-80 253.2806,-100 329.2806,-100 329.2806,-80 253.2806,-80"/>
<text text-anchor="start" x="258.2806" y="-86.9" font-family="Times,serif" font-size="9.00" fill="#000000">prep_time: String</text>
<polygon fill="none" stroke="#000000" points="253.2806,-60 253.2806,-80 329.2806,-80 329.2806,-60 253.2806,-60"/>
<text text-anchor="start" x="258.2806" y="-66.9" font-family="Times,serif" font-size="9.00" fill="#000000">cook_time: String</text>
<polygon fill="none" stroke="#000000" points="253.2806,-40 253.2806,-60 329.2806,-60 329.2806,-40 253.2806,-40"/>
<text text-anchor="start" x="258.2806" y="-46.9" font-family="Times,serif" font-size="9.00" fill="#000000">user: ObjectID</text>
<polygon fill="none" stroke="#000000" points="253.2806,-20 253.2806,-40 329.2806,-40 329.2806,-20 253.2806,-20"/>
<text text-anchor="start" x="258.2806" y="-26.9" font-family="Times,serif" font-size="9.00" fill="#000000">_id: ObjectID</text>
<polygon fill="none" stroke="#000000" points="253.2806,0 253.2806,-20 329.2806,-20 329.2806,0 253.2806,0"/>
<text text-anchor="start" x="258.2806" y="-6.9" font-family="Times,serif" font-size="9.00" fill="#000000">__v: Number</text>
</g>
<!-- users -->
<g id="node4" class="node">
<title>users</title>
<polygon fill="#4477c9" stroke="transparent" points="8.5,-60 8.5,-178 79.5,-178 79.5,-60 8.5,-60"/>
<polygon fill="#add8e6" stroke="transparent" points="9,-160 9,-178 80,-178 80,-160 9,-160"/>
<polygon fill="none" stroke="#000000" points="9,-160 9,-178 80,-178 80,-160 9,-160"/>
<text text-anchor="start" x="33.0043" y="-166.9" font-family="Times,serif" font-weight="bold" font-style="italic" font-size="9.00" fill="#000000"> users </text>
<polygon fill="none" stroke="#000000" points="9,-140 9,-160 80,-160 80,-140 9,-140"/>
<text text-anchor="start" x="13.8825" y="-146.9" font-family="Times,serif" font-size="9.00" fill="#000000">username: String</text>
<polygon fill="none" stroke="#000000" points="9,-120 9,-140 80,-140 80,-120 9,-120"/>
<text text-anchor="start" x="14" y="-126.9" font-family="Times,serif" font-size="9.00" fill="#000000">password: String</text>
<polygon fill="none" stroke="#000000" points="9,-100 9,-120 80,-120 80,-100 9,-100"/>
<text text-anchor="start" x="14" y="-106.9" font-family="Times,serif" font-size="9.00" fill="#000000">email: String</text>
<polygon fill="none" stroke="#000000" points="9,-80 9,-100 80,-100 80,-80 9,-80"/>
<text text-anchor="start" x="14" y="-86.9" font-family="Times,serif" font-size="9.00" fill="#000000">_id: ObjectID</text>
<polygon fill="none" stroke="#000000" points="9,-60 9,-80 80,-80 80,-60 9,-60"/>
<text text-anchor="start" x="14" y="-66.9" font-family="Times,serif" font-size="9.00" fill="#000000">__v: Number</text>
</g>
<!-- users&#45;&gt;fridges -->
<g id="edge2" class="edge">
<title>users:3&#45;&gt;fridges:5</title>
<path fill="none" stroke="#000000" stroke-dasharray="5,2" d="M80,-90C137.1445,-90 196.1361,-280 253.2806,-280"/>
<text text-anchor="middle" x="170.6403" y="-260.2" font-family="Times,serif" font-size="14.00" fill="#000000">users&#45;fridges</text>
<text text-anchor="middle" x="248.2273" y="-267.4" font-family="Times,serif" font-size="14.00" fill="#000000">N</text>
<text text-anchor="middle" x="83.5" y="-77.4" font-family="Times,serif" font-size="14.00" fill="#000000">1</text>
</g>
<!-- users&#45;&gt;recipes -->
<g id="edge3" class="edge">
<title>users:3&#45;&gt;recipes:4</title>
<path fill="none" stroke="#000000" stroke-dasharray="5,2" d="M80,-90C100.2466,-90 104.326,-82.981 124,-78.2 181.1459,-64.3128 194.4715,-50 253.2806,-50"/>
<text text-anchor="middle" x="170.6403" y="-83.2" font-family="Times,serif" font-size="14.00" fill="#000000">users&#45;recipes</text>
<text text-anchor="middle" x="248.2273" y="-37.4" font-family="Times,serif" font-size="14.00" fill="#000000">N</text>
<text text-anchor="middle" x="83.5" y="-94.2" font-family="Times,serif" font-size="14.00" fill="#000000">1</text>
</g>
</g>
</svg>
